<?xml version="1.0" encoding="utf-8"?>
<!-- Generator: Adobe Illustrator 16.0.0, SVG Export Plug-In . SVG Version: 6.00 Build 0)  -->
<!DOCTYPE svg PUBLIC "-//W3C//DTD SVG 1.1//EN" "http://www.w3.org/Graphics/SVG/1.1/DTD/svg11.dtd">
<svg version="1.1" id="Calque_1" xmlns="http://www.w3.org/2000/svg" xmlns:xlink="http://www.w3.org/1999/xlink" x="0px" y="0px"
	 width="208px" height="211px" viewBox="0 0 208 211" enable-background="new 0 0 208 211" xml:space="preserve">
<g>
	<defs>
		<rect id="SVGID_1_" width="208" height="211"/>
	</defs>
	<clipPath id="SVGID_2_">
		<use xlink:href="#SVGID_1_"  overflow="visible"/>
	</clipPath>
	<path clip-path="url(#SVGID_2_)" fill="#2F53A3" d="M178.573,205.5c3.85,0,7.711-0.526,11.32-1.867
		c8.87-3.297,14.294-10.129,14.294-24.189L204.234,5.5h-21.588h-0.021H53.703C24.029,5.768,3.765,27.902,3.765,57.533L3.863,205.5
		H178.573z"/>
	<path clip-path="url(#SVGID_2_)" fill="#FFFFFF" d="M168.606,108.135l-0.004,4.99c2.702-0.454,4.519-1.693,4.77-4.99H168.606z"/>
	<path clip-path="url(#SVGID_2_)" fill="#FFFFFF" d="M47.804,126.941c0,5.578-3.049,8.626-8.589,8.626s-8.589-3.048-8.589-8.626
		v-15.653c0-0.557,0.297-0.855,0.855-0.855h2.751c0.558,0,0.855,0.299,0.855,0.855v15.319c0,3.458,1.34,5.093,4.165,5.093
		c2.863,0,4.201-1.635,4.201-5.093v-15.319c0-0.557,0.298-0.855,0.856-0.855h2.64c0.557,0,0.855,0.299,0.855,0.855V126.941z"/>
	<path clip-path="url(#SVGID_2_)" fill="#FFFFFF" d="M62.336,123.409c0-2.528-0.966-3.718-3.012-3.718
		c-2.082,0-3.049,1.189-3.049,3.718v10.857c0,0.559-0.297,0.855-0.855,0.855h-2.342c-0.558,0-0.855-0.297-0.855-0.855v-11.117
		c0-4.536,2.491-6.953,7.101-6.953c4.574,0,7.065,2.417,7.065,6.953v11.117c0,0.559-0.297,0.855-0.855,0.855h-2.343
		c-0.557,0-0.855-0.297-0.855-0.855V123.409z"/>
	<path clip-path="url(#SVGID_2_)" fill="#FFFFFF" d="M70.326,111.14c0-1.376,1.004-2.38,2.417-2.38s2.416,1.004,2.416,2.38
		c0,1.412-1.003,2.416-2.416,2.416S70.326,112.552,70.326,111.14 M71.553,135.122c-0.558,0-0.855-0.297-0.855-0.856v-16.769
		c0-0.557,0.297-0.854,0.855-0.854h2.342c0.558,0,0.856,0.298,0.856,0.854v16.769c0,0.56-0.298,0.856-0.856,0.856H71.553z"/>
	<path clip-path="url(#SVGID_2_)" fill="#FFFFFF" d="M92.745,116.642c0.632,0,0.892,0.373,0.707,0.967l-5.466,16.807
		c-0.15,0.483-0.447,0.707-0.967,0.707h-2.9c-0.521,0-0.818-0.224-0.968-0.707l-5.503-16.807c-0.185-0.594,0.112-0.967,0.744-0.967
		h2.566c0.483,0,0.818,0.224,0.966,0.707l3.682,12.717h0.075l3.717-12.717c0.149-0.483,0.484-0.707,0.968-0.707H92.745z"/>
	<path clip-path="url(#SVGID_2_)" fill="#FFFFFF" d="M109.991,123.261v3.049c0,0.558-0.297,0.855-0.855,0.855h-9.294v0.743
		c0,2.938,1.19,4.164,3.866,4.164c1.265,0,2.306-0.408,3.347-1.265c0.446-0.371,0.854-0.371,1.189,0.112l1.003,1.451
		c0.299,0.408,0.262,0.816-0.148,1.189c-1.45,1.301-3.421,2.007-5.539,2.007c-5.094,0-7.771-2.417-7.771-7.361v-4.945
		c0-4.574,2.528-7.065,7.102-7.065C107.463,116.195,109.991,118.687,109.991,123.261 M106.124,123.558
		c0-2.603-1.004-3.867-3.123-3.867c-2.12,0-3.16,1.265-3.16,3.867v0.559h6.283V123.558z"/>
	<path clip-path="url(#SVGID_2_)" fill="#FFFFFF" d="M113.297,123.187c0-4.574,2.193-6.991,6.469-6.991
		c1.6,0,2.975,0.335,4.165,1.042c0.445,0.26,0.52,0.707,0.297,1.153l-0.855,1.523c-0.26,0.521-0.632,0.559-1.152,0.297
		c-0.631-0.334-1.339-0.521-2.044-0.521c-1.897,0-2.827,1.116-2.827,3.385v11.191c0,0.558-0.297,0.855-0.854,0.855h-2.343
		c-0.558,0-0.854-0.298-0.854-0.855V123.187z"/>
	<path clip-path="url(#SVGID_2_)" fill="#FFFFFF" d="M132.999,135.567c-2.976,0-5.058-0.594-6.73-1.97
		c-0.408-0.335-0.445-0.744-0.187-1.189l1.006-1.525c0.297-0.482,0.705-0.521,1.151-0.187c1.265,0.894,2.789,1.413,4.276,1.413
		c1.934,0,3.012-0.817,3.012-2.229c0-1.229-0.818-1.823-3.458-2.232c-4.351-0.67-5.912-2.379-5.912-5.763
		c0-3.421,2.677-5.69,6.768-5.69c2.119,0,4.09,0.522,5.503,1.45c0.446,0.299,0.483,0.707,0.222,1.189l-0.928,1.488
		c-0.299,0.483-0.67,0.521-1.153,0.224c-0.93-0.596-2.045-0.894-3.198-0.894c-2.045,0-3.16,0.782-3.16,2.232
		c0,1.151,0.781,1.672,3.31,2.045c4.388,0.632,6.023,2.417,6.023,5.95C139.543,133.375,137.015,135.567,132.999,135.567"/>
	<path clip-path="url(#SVGID_2_)" fill="#FFFFFF" d="M142.178,111.14c0-1.376,1.004-2.38,2.417-2.38c1.414,0,2.416,1.004,2.416,2.38
		c0,1.412-1.002,2.416-2.416,2.416C143.182,113.556,142.178,112.552,142.178,111.14 M143.405,135.122
		c-0.558,0-0.854-0.297-0.854-0.856v-16.769c0-0.557,0.297-0.854,0.854-0.854h2.342c0.559,0,0.855,0.298,0.855,0.854v16.769
		c0,0.56-0.297,0.856-0.855,0.856H143.405z"/>
	<path clip-path="url(#SVGID_2_)" fill="#FFFFFF" d="M161.696,133.895c0.149,0.482,0.037,0.894-0.445,1.115
		c-0.818,0.372-1.896,0.558-3.124,0.558c-4.164,0-6.246-2.118-6.246-6.283v-9.147h-1.562c-0.558,0-0.854-0.297-0.854-0.854v-1.786
		c0-0.557,0.297-0.855,0.854-0.855h1.562v-3.978c0-0.558,0.297-0.856,0.855-0.856h2.341c0.559,0,0.856,0.299,0.856,0.856v3.978
		h4.499c0.557,0,0.855,0.299,0.855,0.855v1.786c0,0.557-0.299,0.854-0.855,0.854h-4.499v9.147c0,1.823,0.93,2.788,2.677,2.788
		c0.521,0,1.041-0.111,1.525-0.297c0.52-0.187,0.93-0.074,1.078,0.483L161.696,133.895z"/>
	<path clip-path="url(#SVGID_2_)" fill="#FFFFFF" d="M178.016,123.261v3.049c0,0.558-0.298,0.855-0.855,0.855h-9.295v0.743
		c0,2.938,1.189,4.164,3.866,4.164c1.265,0,2.307-0.408,3.348-1.265c0.444-0.371,0.854-0.371,1.189,0.112l1.003,1.451
		c0.299,0.408,0.262,0.816-0.148,1.189c-1.45,1.301-3.421,2.007-5.539,2.007c-5.096,0-7.772-2.417-7.772-7.361v-4.945
		c0-4.574,2.528-7.065,7.103-7.065C175.487,116.195,178.016,118.687,178.016,123.261 M174.148,123.558
		c0-2.603-1.004-3.867-3.124-3.867c-2.119,0-3.159,1.265-3.159,3.867v0.559h6.283V123.558z"/>
	<path clip-path="url(#SVGID_2_)" fill="#FFFFFF" d="M49.478,101.208c0,0.455-0.242,0.696-0.696,0.696H37.766
		c-0.455,0-0.697-0.241-0.697-0.696V82.505c0-0.455,0.242-0.697,0.697-0.697h2.239c0.454,0,0.696,0.242,0.696,0.697v16.252h8.081
		c0.454,0,0.696,0.242,0.696,0.697V101.208z"/>
	<path clip-path="url(#SVGID_2_)" fill="#FFFFFF" d="M62.795,92.491v4.025c0,3.693-2.089,5.751-5.932,5.751
		c-3.662,0-5.629-1.693-5.629-4.782c0-2.935,1.907-4.6,5.447-4.6h2.815v-0.152c0-2.39-0.938-3.389-3.026-3.389
		c-0.969,0-1.907,0.393-2.664,0.968c-0.363,0.273-0.696,0.242-0.968-0.151l-0.818-1.27c-0.242-0.364-0.211-0.697,0.152-0.969
		c1.362-0.969,2.845-1.423,4.6-1.423C60.646,86.499,62.795,88.527,62.795,92.491 M59.496,96.245v-0.908h-2.36
		c-1.635,0-2.603,0.727-2.603,2.057c0,1.333,0.847,2.028,2.33,2.028C58.679,99.422,59.496,98.393,59.496,96.245"/>
	<path clip-path="url(#SVGID_2_)" fill="#FFFFFF" d="M76.779,101.208c0,0.455-0.242,0.696-0.696,0.696h-2.24
		c-0.454,0-0.696-0.241-0.696-0.696V82.505c0-0.455,0.242-0.697,0.696-0.697h5.569c4.933,0,7.294,2.028,7.294,6.205
		c0,3.147-1.302,5.114-3.995,5.902l4.116,7.143c0.272,0.484,0.091,0.846-0.484,0.846H83.74c-0.393,0-0.666-0.151-0.848-0.484
		L79.2,94.338h-2.421V101.208z M79.412,91.19c2.512,0,3.632-0.998,3.632-3.086c0-2.15-1.12-3.148-3.632-3.148h-2.633v6.234H79.412z"
		/>
	<path clip-path="url(#SVGID_2_)" fill="#FFFFFF" d="M101.415,92.249v4.267c0,3.723-2.089,5.751-5.872,5.751
		c-3.813,0-5.902-2.028-5.902-5.751v-4.267c0-3.722,2.089-5.75,5.902-5.75C99.326,86.499,101.415,88.527,101.415,92.249
		 M98.116,92.491c0-2.118-0.848-3.147-2.573-3.147c-1.755,0-2.602,1.029-2.602,3.147v3.754c0,2.148,0.847,3.177,2.602,3.177
		c1.725,0,2.573-1.029,2.573-3.177V92.491z"/>
	<path clip-path="url(#SVGID_2_)" fill="#FFFFFF" d="M114.43,99.846c0.242,0.334,0.211,0.697-0.092,0.969
		c-1.06,0.908-2.451,1.452-4.116,1.452c-3.782,0-5.992-2.057-5.992-5.992v-3.813c0-3.935,2.149-5.963,5.901-5.963
		c1.636,0,2.966,0.424,3.905,1.181c0.333,0.242,0.362,0.605,0.091,0.969l-0.849,1.179c-0.271,0.364-0.574,0.364-0.969,0.092
		c-0.513-0.364-1.149-0.576-1.966-0.576c-1.847,0-2.815,1.029-2.815,3.39v3.299c0,2.36,1.029,3.39,2.967,3.39
		c0.816,0,1.514-0.272,2.147-0.817c0.364-0.303,0.697-0.303,0.969,0.09L114.43,99.846z"/>
	<path clip-path="url(#SVGID_2_)" fill="#FFFFFF" d="M128.562,92.159v9.049c0,0.455-0.242,0.697-0.695,0.697h-1.907
		c-0.453,0-0.695-0.242-0.695-0.697v-8.837c0-2.059-0.787-3.027-2.482-3.027c-1.665,0-2.481,1.029-2.481,3.027v8.837
		c0,0.455-0.242,0.697-0.697,0.697h-1.906c-0.454,0-0.696-0.242-0.696-0.697V81.415c0-0.455,0.242-0.695,0.696-0.695h1.906
		c0.455,0,0.697,0.24,0.697,0.695v6.234h0.061c0.727-0.786,1.785-1.15,3.147-1.15C126.776,86.499,128.562,88.468,128.562,92.159"/>
	<path clip-path="url(#SVGID_2_)" fill="#FFFFFF" d="M143.302,92.249v2.482c0,0.455-0.242,0.697-0.695,0.697h-7.566v0.605
		c0,2.391,0.969,3.389,3.147,3.389c1.03,0,1.876-0.332,2.725-1.029c0.362-0.302,0.695-0.302,0.969,0.092l0.817,1.179
		c0.241,0.333,0.212,0.666-0.122,0.969c-1.18,1.059-2.784,1.634-4.509,1.634c-4.146,0-6.326-1.967-6.326-5.992v-4.026
		c0-3.722,2.059-5.75,5.781-5.75S143.302,88.527,143.302,92.249 M140.155,92.491c0-2.118-0.817-3.147-2.542-3.147
		s-2.573,1.029-2.573,3.147v0.455h5.115V92.491z"/>
	<path clip-path="url(#SVGID_2_)" fill="#FFFFFF" d="M146.965,101.904c-0.452,0-0.694-0.242-0.694-0.696V81.414
		c0-0.454,0.242-0.695,0.694-0.695h1.907c0.455,0,0.697,0.241,0.697,0.695v19.794c0,0.454-0.242,0.696-0.697,0.696H146.965z"/>
	<path clip-path="url(#SVGID_2_)" fill="#FFFFFF" d="M154.048,101.904c-0.455,0-0.697-0.242-0.697-0.696V81.414
		c0-0.454,0.242-0.695,0.697-0.695h1.906c0.454,0,0.697,0.241,0.697,0.695v19.794c0,0.454-0.243,0.696-0.697,0.696H154.048z"/>
	<path clip-path="url(#SVGID_2_)" fill="#FFFFFF" d="M171.511,92.249v2.482c0,0.455-0.242,0.697-0.696,0.697h-7.566v0.605
		c0,2.391,0.969,3.389,3.148,3.389c1.027,0,1.876-0.332,2.723-1.029c0.364-0.302,0.697-0.302,0.969,0.092l0.817,1.179
		c0.242,0.333,0.212,0.666-0.121,0.969c-1.181,1.059-2.785,1.634-4.51,1.634c-4.146,0-6.325-1.967-6.325-5.992v-4.026
		c0-3.722,2.058-5.75,5.78-5.75S171.511,88.527,171.511,92.249 M168.363,92.491c0-2.118-0.817-3.147-2.543-3.147
		c-1.725,0-2.572,1.029-2.572,3.147v0.455h5.115V92.491z"/>
	<rect x="57.452" y="156.359" clip-path="url(#SVGID_2_)" fill="#FFFFFF" width="92.617" height="4.815"/>
</g>
</svg>
