<svg id="Calque_1" data-name="Calque 1" xmlns="http://www.w3.org/2000/svg" xmlns:xlink="http://www.w3.org/1999/xlink" viewBox="0 0 188.06 129.1"><defs><style>.cls-1{fill:none;}.cls-2{clip-path:url(#clip-path);}.cls-3{fill:#5558a0;}</style><clipPath id="clip-path"><rect class="cls-1" width="188.06" height="129.1"/></clipPath></defs><title>Plan de travail 1ELIO</title><g class="cls-2"><path class="cls-3" d="M40,82.81c-5.8.32-10.32-2.88-10.78-9.24-.71-9.78,9-18.12,27-18.94l2.42-8.77c-9.48.79-14-3.28-14.12-9.28S48.29,24,55.41,23.48c5.22-.38,8.21,4,6.75,10.11l10.44-.76c2.69-10.31-4.25-19.26-16.79-18.35-13.1.95-22.1,11.14-21.47,22.45.25,4.76,2.9,9.81,6.9,12.29C28.56,52.05,17.35,62,18.33,75.6c.87,12,10,17.89,21.85,17,13.1-.95,22.71-9.28,26.11-20.4l-9-3.94c-2.76,8-9.58,14-17.28,14.52"/><path class="cls-3" d="M105.94,38.61c4.45-.32,8.33-5.61,8-10.27A5.36,5.36,0,0,0,108,23.23c-4.55.33-8.36,5.18-8,10.16a5.27,5.27,0,0,0,5.92,5.22"/><path class="cls-3" d="M163.36,50.54a10.38,10.38,0,0,1-11.51,5.84l-.06-.85c-.57-7.84-6-15.22-15.32-14.55-12.64.92-21,12.74-21.89,25.78-3.58,6.31-7.36,10.42-10.21,10.63-5.72.41-.33-14.89,5-33.39l-11,.8c-2,6.61-3.85,13.08-5.2,18.91C89,72.64,84.05,78.86,80.54,79.11c-3.18.23-3-3.08.09-14.92,2.31-9.22,6.78-25.62,12.29-43.7l-11.24.81c-4.24,15-9,31.33-11.66,42-4.5,18.85-2.52,27,7.86,26.27C83,89.16,87.67,85.09,91.54,80c.75,5.27,3.68,8.33,10.18,7.86,5.35-.39,10.3-4.9,14.29-10.44,2.37,5.49,7.43,8.87,14.21,8.38,11.13-.81,18.56-10,20.88-20.58,8.15.69,15.62-5,17.63-9.58ZM131,75.89c-3.07.22-5.26-2.07-5.61-6.84-.56-7.73,4.23-18.2,10-18.61,3.28-.24,5.19,2.61,5.49,6.74.58,8.05-4.32,18.31-9.83,18.71"/><path class="cls-3" d="M19.87,114.69l-1.33-7.89c.83-.14,83.7-14,150-11.68l-.28,8c-65.5-2.3-147.59,11.44-148.42,11.58"/></g></svg>